# xmcd
#
# Track frame offsets:
#	183
#	21633
#	40085
#
# Disc length: 764 seconds
#
# Revision: 0
# Processed by: cddbd v1.5PL3 Copyright (c) Steve Scherf et al.
# Submitted via: audiograbber 1.83.01
#
DISCID=2002fa03
DTITLE=Kool and The Gang - Never Give Up (Maxi CD)
DYEAR=2002
DGENRE=Alternative
TTITLE0=Never Give Up (LP Version)
TTITLE1=Never Give Up (Edit)
TTITLE2=Amor Amore (Vocal Version)
EXTD=
EXTT0=
EXTT1=
EXTT2=
PLAYORDER=
